<svg width="128" height="128" viewBox="0 0 128 128" fill="none" xmlns="http://www.w3.org/2000/svg">
<g filter="url(#filter0_dd)">
<ellipse cx="64" cy="64" rx="54" ry="30" fill="black"/>
<path d="M33.3099 69.09H30.5919L29.3139 68.352V72.6H27.5679V59.91H28.8819L29.3139 60.648L30.5919 59.91H33.3099L35.3979 61.116V67.884L33.3099 69.09ZM29.3139 61.476V67.524H33.6519V61.476H29.3139ZM37.553 61.566V60H39.209V58.488L40.955 57.48V60H43.115V61.566H40.955V67.434H43.115V69H41.297L39.209 67.794V61.566H37.553ZM47.3842 69H45.6382V55.86H47.3842V60.648L48.6622 59.91H51.3802L53.4682 61.116V69H51.7222V61.476H47.3842V69ZM61.3653 61.566H58.0893V69H56.3433V60H57.6573L58.0893 60.738L59.3673 60H61.3653V61.566ZM70.4494 67.434V69H65.4274L63.3394 67.794V61.116L65.4274 59.91H68.3614L70.4494 61.116V65.112H65.0854V67.434H70.4494ZM65.0854 61.476V63.546H68.7034V61.476H65.0854ZM74.7098 65.31V67.524H78.3278V65.31H74.7098ZM75.0518 69.09L72.9638 67.884V64.95L75.0518 63.744H78.3278V61.566H73.8638V60H77.9858L80.0738 61.206V69.09H79.6058L78.3278 68.352L77.0498 69.09H75.0518ZM85.0446 59.91H87.7626L89.0406 60.648V55.86H90.7866V69.09H89.4726L89.0406 68.352L87.7626 69.09H85.0446L82.9566 67.884V61.116L85.0446 59.91ZM89.0406 67.524V61.476H84.7026V67.524H89.0406ZM100.43 64.86V67.794L98.3417 69H93.6617V67.434H98.6837V65.22H95.7497L93.6617 64.014V61.206L95.7497 60H100.25V61.566H95.4077V63.654H98.3417L100.43 64.86Z" fill="white"/>
</g>
<defs>
<filter id="filter0_dd" x="-6" y="-6" width="144" height="144" filterUnits="userSpaceOnUse" color-interpolation-filters="sRGB">
<feFlood flood-opacity="0" result="BackgroundImageFix"/>
<feColorMatrix in="SourceAlpha" type="matrix" values="0 0 0 0 0 0 0 0 0 0 0 0 0 0 0 0 0 0 127 0"/>
<feOffset dx="2" dy="2"/>
<feColorMatrix type="matrix" values="0 0 0 0 0 0 0 0 0 0 0 0 0 0 0 0 0 0 0.12 0"/>
<feBlend mode="normal" in2="BackgroundImageFix" result="effect1_dropShadow"/>
<feColorMatrix in="SourceAlpha" type="matrix" values="0 0 0 0 0 0 0 0 0 0 0 0 0 0 0 0 0 0 127 0"/>
<feOffset dx="2" dy="2"/>
<feGaussianBlur stdDeviation="4"/>
<feColorMatrix type="matrix" values="0 0 0 0 0 0 0 0 0 0 0 0 0 0 0 0 0 0 0.5 0"/>
<feBlend mode="normal" in2="effect1_dropShadow" result="effect2_dropShadow"/>
<feBlend mode="normal" in="SourceGraphic" in2="effect2_dropShadow" result="shape"/>
</filter>
</defs>
</svg>
